<svg xmlns="http://www.w3.org/2000/svg" viewBox="0 0 30 30"  width="30" height="30">
  <path d="M22.7,9.9V6.3c1-0.5,1.6-1.4,1.6-2.5V3.7C24.3,2.2,23,1,21.5,1h-0.1c-1.5,0-2.8,1.2-2.8,2.8v0.1c0,1.1,0.6,2,1.6,2.5v3.6
	c-1.4,0.2-2.6,0.8-3.7,1.6L6.8,3.9c0.1-0.3,0.1-0.5,0.1-0.8C6.9,1.4,5.5,0,3.8,0C2.1,0,0.7,1.4,0.7,3.1c0,1.7,1.4,3.1,3.1,3.1
	c0,0,0,0,0,0c0.5,0,1.1-0.1,1.5-0.4l9.6,7.5c-1.8,2.7-1.7,6.2,0.1,8.8L12.1,25c-0.2-0.1-0.5-0.1-0.7-0.1c-1.4,0-2.5,1.1-2.5,2.5
	c0,1.4,1.1,2.5,2.5,2.5c1.4,0,2.5-1.1,2.5-2.5c0-0.2,0-0.5-0.1-0.7l2.9-2.9c2.6,2,6.2,2.2,8.9,0.4c2.8-1.7,4.2-5,3.5-8.2
	C28.5,12.8,25.9,10.4,22.7,9.9 M21.5,21.6c-2.2,0.1-4.1-1.7-4.1-3.9c-0.1-2.2,1.7-4.1,3.9-4.1c0.1,0,0.1,0,0.2,0
	c2.2,0.1,3.9,1.8,3.9,4C25.3,19.8,23.6,21.5,21.5,21.6"/>
</svg>
