<svg width="20" height="20" viewBox="0 0 20 20" xmlns="http://www.w3.org/2000/svg">
  <path d="M15.1,6.6V4.2c0.6-0.3,1.1-0.9,1.1-1.7V2.5c0-1-0.8-1.8-1.8-1.8h-0.1c-1,0-1.8,0.8-1.8,1.8v0.1c0,0.7,0.4,1.4,1.1,1.7v2.4
	c-0.9,0.1-1.8,0.5-2.5,1.1L4.5,2.6c0-0.2,0.1-0.3,0.1-0.5C4.6,0.9,3.7,0,2.5,0C1.4,0,0.5,0.9,0.4,2.1c0,1.1,0.9,2.1,2.1,2.1
	c0,0,0,0,0,0c0.4,0,0.7-0.1,1-0.3l6.4,5C8.8,10.6,8.8,13,10,14.7l-2,2c-0.2-0.1-0.3-0.1-0.5-0.1c-0.9,0-1.7,0.8-1.7,1.7
	c0,0.9,0.8,1.7,1.7,1.7c0.9,0,1.7-0.8,1.7-1.7c0-0.2,0-0.3-0.1-0.5l1.9-1.9c1.7,1.3,4.1,1.4,6,0.3c1.8-1.2,2.8-3.3,2.3-5.5
	C19,8.5,17.3,6.9,15.1,6.6 M14.3,14.4c-1.5,0-2.7-1.1-2.7-2.6c0-1.5,1.1-2.7,2.6-2.7c0,0,0.1,0,0.1,0c1.4,0.1,2.6,1.2,2.6,2.7
	C16.9,13.2,15.8,14.4,14.3,14.4"/>
</svg>
