<svg width="30" height="30" viewBox="0 0 30 30" xmlns="http://www.w3.org/2000/svg">
	<path fill="#444" d="M30,13.4h-9.1l7.9-4.6l-1.6-2.7l-7.9,4.6l4.6-7.9l-2.7-1.6l-4.6,7.9V0h-3.1v9.1L8.9,1.2L6.1,2.8l4.6,7.9
	L2.8,6.1L1.2,8.9l7.9,4.6H0v3.1h9.1l-7.9,4.6l1.6,2.7l7.9-4.6l-4.6,7.9l2.7,1.6l4.6-7.9V30h3.1v-9.3l4.7,8.1l2.6-1.5l-4.7-8.1
	l8.1,4.7l1.6-2.7l-7.9-4.6H30L30,13.4C30,13.4,30,13.4,30,13.4z M15,19.3c-2.4,0-4.3-1.9-4.3-4.3c0-2.4,1.9-4.3,4.3-4.3
	c2.4-0.3,4.5,1.4,4.8,3.8S18.4,19,16,19.3H15z"/>
</svg>