<svg width="20" height="20" viewBox="0 0 20 20" xmlns="http://www.w3.org/2000/svg">
	<path fill="#575656" d="M4.8,15.2c-2.3-0.5-2.5-1.1-2.5-2.6v-0.5c0-0.8-0.2-1.6-0.9-1.6H1V9.6h0.4c0.6,0,0.9-0.4,0.9-1.1V7
		c0-1.2,0.4-1.7,2.5-2.2L5,5.7C3.6,6.1,3.6,6.2,3.6,7.2v1.3c0,0.8-0.4,1.3-1.1,1.5c0.7,0.2,1.1,0.7,1.1,1.5v1.3
		c0,0.9,0.1,1.1,1.4,1.5L4.8,15.2z"/>
	<path fill="#575656" d="M6.8,11.6c0.5,0,0.9,0.4,0.9,0.9c0,0.5-0.4,0.8-0.9,0.8c-0.5,0-0.8-0.4-0.8-0.8C5.9,12,6.3,11.6,6.8,11.6z"/>
	<path fill="#575656" d="M9.9,11.6c0.5,0,0.9,0.4,0.9,0.9c0,0.5-0.4,0.8-0.9,0.8c-0.5,0-0.8-0.4-0.8-0.8C9.1,12,9.4,11.6,9.9,11.6z"/>
	<path fill="#575656" d="M13.1,11.6c0.5,0,0.9,0.4,0.9,0.9c0,0.5-0.4,0.8-0.9,0.8c-0.5,0-0.8-0.4-0.8-0.8C12.2,12,12.6,11.6,13.1,11.6z
		"/>
	<path fill="#575656" d="M15,14.3c1.3-0.4,1.4-0.6,1.4-1.5v-1.3c0-0.8,0.4-1.3,1.1-1.5c-0.7-0.2-1.1-0.7-1.1-1.5V7.2
		c0-0.9-0.1-1.1-1.4-1.5l0.2-0.9c2.1,0.4,2.5,1,2.5,2.2v1.5c0,0.7,0.3,1.1,0.9,1.1H19v0.9h-0.4c-0.7,0-0.9,0.5-0.9,1.4v1
		c0,1.4-0.3,1.9-2.5,2.4L15,14.3z"/>
</svg>
