<svg width="20" height="20" viewBox="0 0 20 20" xmlns="http://www.w3.org/2000/svg">
  <path fill="#444" d="M3.2,16c0,.2.2.4.4.4h.1c0,0,.1,0,.1-.1v-3.3h0c0,0,0,0-.1,0h-.5c0,0-.1,0-.1,0h0v.3c-.3-.3-.7-.5-1.2-.5-1,0-1.8.8-1.8,1.8s.8,1.8,1.8,1.8.9-.2,1.2-.5ZM2,15.8c-.6,0-1.2-.5-1.2-1.2s.5-1.2,1.2-1.2,1.2.5,1.2,1.2-.5,1.2-1.2,1.2Z"/>
  <path fill="#444" d="M10.7,16c0,.2.2.4.4.4h.1c0,0,.1,0,.1-.1v-3.3h0c0,0,0,0-.1,0h-.5c0,0-.1,0-.1,0h0v.3c-.3-.3-.7-.5-1.2-.5-1,0-1.8.8-1.8,1.8s.8,1.8,1.8,1.8c.4,0,.9-.2,1.2-.5ZM9.6,15.8c-.6,0-1.2-.5-1.2-1.2s.5-1.2,1.2-1.2,1.2.5,1.2,1.2-.5,1.2-1.2,1.2Z"/>
  <path fill="#444" d="M19.1,16c0,.2.2.4.4.4h.1c0,0,.1,0,.1-.1v-3.3h0c0,0,0,0-.1,0h-.5c0,0-.1,0-.1,0h0v.3c-.3-.3-.7-.5-1.2-.5-1,0-1.8.8-1.8,1.8s.8,1.8,1.8,1.8c.4,0,.9-.2,1.2-.5ZM18,15.8c-.6,0-1.2-.5-1.2-1.2s.5-1.2,1.2-1.2,1.2.5,1.2,1.2c0,.7-.5,1.2-1.2,1.2Z"/>
  <path fill="#444" d="M15.5,16.1v-1.7c0-1-.6-1.6-1.6-1.6s-.9.3-1,.5c0-.2-.1-.4-.4-.4h-.1c0,0-.1,0-.1.1v3h0v.3h0s0,0,0,0c0,0,0,0,.1,0h.5s0,0,0,0c0,0,0,0,0,0,0,0,0,0,0,0,0,0,0,0,0,0,0,0,0,0,0,0,0,0,0,0,0,0,0,0,0,0,0,0,0,0,0,0,0,0,0,0,0,0,0,0h0v-.2h0v-1.7c0-.5.4-.9.9-.9s.9.4.9.9v1.6s0,0,0,0h0v.3h0s0,0,0,0c0,0,0,0,.1,0h.5s0,0,0,0c0,0,0,0,0,0,0,0,0,0,0,0,0,0,0,0,0,0,0,0,0,0,0,0,0,0,0,0,0,0,0,0,0,0,0,0,0,0,0,0,0,0,0,0,0,0,0,0,0,0,0,0,0,0h0s0-.2,0-.2Z"/>
  <path fill="#444" d="M5,15.5c.3.2.6.3,1,.3s.6-.2.6-.4-.7-.4-1.1-.6c-.4-.1-.8-.5-.8-.9,0-.8.7-1.1,1.3-1.1s.8.1,1.1.3c0,0,0,.2,0,.2l-.3.4s0,0-.2,0c0,0-.3-.2-.7-.2s-.6.2-.6.4.3.3.7.4c.6.2,1.3.4,1.3,1.1s-.6,1.1-1.3,1.1-1-.1-1.3-.4c0,0,0-.2,0-.2l.3-.4c0,0,.1,0,.1,0Z"/>
  <path fill="#444" d="M11.6,5.2c0,.9-.7,1.6-1.6,1.6s-1.6-.7-1.6-1.6.7-1.6,1.6-1.6,1.6.7,1.6,1.6ZM7.9,7.2c-.9,0-1.6.7-1.6,1.6s.7,1.6,1.6,1.6,1.6-.7,1.6-1.6-.7-1.6-1.6-1.6ZM12.1,7.2c-.9,0-1.6.7-1.6,1.6s.7,1.6,1.6,1.6,1.6-.7,1.6-1.6-.7-1.6-1.6-1.6Z"/>
</svg>