<svg width="30" height="30" viewBox="0 0 30 30" xmlns="http://www.w3.org/2000/svg">
  <path fill="#444" d="M5.4,23.4c0,.3.2.6.6.6h.2c0,0,.1,0,.1-.1v-4.6h0c0,0,0-.1-.1-.1h-.7c0,0-.1,0-.1.1h0v.4c-.4-.5-1-.7-1.7-.7-1.4,0-2.6,1.2-2.6,2.6s1.2,2.6,2.6,2.6,1.3-.2,1.7-.7ZM3.7,23.2c-.9,0-1.7-.8-1.7-1.7s.7-1.7,1.7-1.7,1.7.8,1.7,1.7-.7,1.7-1.7,1.7Z"/>
  <path fill="#444" d="M16,23.4c0,.3.2.6.6.6h.2c0,0,.1,0,.1-.1v-4.6h0c0,0,0-.1-.1-.1h-.7c0,0-.1,0-.1.1h0v.4c-.4-.5-1-.7-1.7-.7-1.4,0-2.6,1.2-2.6,2.6s1.2,2.6,2.6,2.6c.6,0,1.3-.2,1.7-.7ZM14.4,23.2c-.9,0-1.7-.8-1.7-1.7s.7-1.7,1.7-1.7,1.7.8,1.7,1.7-.7,1.7-1.7,1.7Z"/>
  <path fill="#444" d="M27.9,23.4c0,.3.2.6.6.6h.2c0,0,.1,0,.1-.1v-4.6h0c0,0,0-.1-.1-.1h-.7c0,0-.1,0-.1.1h0v.4c-.4-.5-1-.7-1.7-.7-1.4,0-2.6,1.2-2.6,2.6s1.2,2.6,2.6,2.6c.6,0,1.3-.2,1.7-.7ZM26.3,23.2c-.9,0-1.7-.8-1.7-1.7s.7-1.7,1.7-1.7,1.7.8,1.7,1.7c0,.9-.7,1.7-1.7,1.7Z"/>
  <path fill="#444" d="M22.8,23.6v-2.4c0-1.4-.9-2.3-2.2-2.3s-1.2.4-1.4.7c0-.3-.2-.5-.6-.5h-.2c0,0-.1,0-.1.1v4.2h0v.4h0s0,0,0,0c0,0,0,.1.1.1h.7s0,0,0,0c0,0,0,0,0,0,0,0,0,0,0,0,0,0,0,0,0,0,0,0,0,0,0,0,0,0,0,0,0,0,0,0,0,0,0,0,0,0,0,0,0,0,0,0,0,0,0,0h0v-.3h0v-2.4c0-.7.6-1.3,1.3-1.3s1.3.6,1.3,1.3v2.3s0,0,0,0h0v.4h0s0,0,0,0c0,0,0,.1.1.1h.7s0,0,0,0c0,0,0,0,0,0,0,0,0,0,0,0,0,0,0,0,0,0,0,0,0,0,0,0,0,0,0,0,0,0,0,0,0,0,0,0,0,0,0,0,0,0,0,0,0,0,0,0,0,0,0,0,0,0h0s0-.3,0-.3Z"/>
  <path fill="#444" d="M7.9,22.8c.4.3.9.4,1.4.4s.9-.2.9-.6-1-.6-1.6-.8c-.6-.2-1.2-.6-1.2-1.3,0-1.1,1-1.5,1.9-1.5s1.2.2,1.5.5c.1,0,0,.2,0,.2l-.4.5c0,0-.1.1-.2,0-.1,0-.5-.3-1-.3s-.9.3-.9.6.4.5.9.6c.9.2,1.8.5,1.8,1.6s-.9,1.5-1.9,1.5-1.4-.2-1.9-.6c-.1-.1,0-.2,0-.2l.4-.5c0,0,.2,0,.2,0Z"/>
  <path fill="#444" d="M17.3,8.1c0,1.3-1,2.3-2.3,2.3s-2.3-1-2.3-2.3,1-2.3,2.3-2.3,2.3,1,2.3,2.3ZM12,11c-1.3,0-2.3,1-2.3,2.3s1,2.3,2.3,2.3,2.3-1,2.3-2.3-1-2.3-2.3-2.3ZM18,11c-1.3,0-2.3,1-2.3,2.3s1,2.3,2.3,2.3,2.3-1,2.3-2.3-1-2.3-2.3-2.3Z"/>
</svg>